<mxfile host="app.diagrams.net" modified="2024-03-04T00:50:29.641Z" agent="Mozilla/5.0 (Windows NT 10.0; Win64; x64) AppleWebKit/537.36 (KHTML, like Gecko) Chrome/122.0.0.0 Safari/537.36" etag="q7QphZJULzv_qo84reVE" version="24.0.1" type="google">
  <diagram id="C5RBs43oDa-KdzZeNtuy" name="Page-1">
    <mxGraphModel grid="1" page="1" gridSize="10" guides="1" tooltips="1" connect="1" arrows="1" fold="1" pageScale="1" pageWidth="827" pageHeight="1169" math="0" shadow="0">
      <root>
        <mxCell id="WIyWlLk6GJQsqaUBKTNV-0" />
        <mxCell id="WIyWlLk6GJQsqaUBKTNV-1" parent="WIyWlLk6GJQsqaUBKTNV-0" />
        <mxCell id="zkfFHV4jXpPFQw0GAbJ--0" value="Tile&lt;E&gt;" style="swimlane;fontStyle=0;align=center;verticalAlign=top;childLayout=stackLayout;horizontal=1;startSize=26;horizontalStack=0;resizeParent=1;resizeLast=0;collapsible=1;marginBottom=0;rounded=0;shadow=0;strokeWidth=1;" vertex="1" parent="WIyWlLk6GJQsqaUBKTNV-1">
          <mxGeometry x="256" y="240" width="160" height="150" as="geometry">
            <mxRectangle x="230" y="140" width="160" height="26" as="alternateBounds" />
          </mxGeometry>
        </mxCell>
        <mxCell id="zkfFHV4jXpPFQw0GAbJ--1" value="+ x: intÂ &#xa;+ y: int&#xa;- object: E" style="text;align=left;verticalAlign=top;spacingLeft=4;spacingRight=4;overflow=hidden;rotatable=0;points=[[0,0.5],[1,0.5]];portConstraint=eastwest;" vertex="1" parent="zkfFHV4jXpPFQw0GAbJ--0">
          <mxGeometry y="26" width="160" height="54" as="geometry" />
        </mxCell>
        <mxCell id="zkfFHV4jXpPFQw0GAbJ--4" value="" style="line;html=1;strokeWidth=1;align=left;verticalAlign=middle;spacingTop=-1;spacingLeft=3;spacingRight=3;rotatable=0;labelPosition=right;points=[];portConstraint=eastwest;" vertex="1" parent="zkfFHV4jXpPFQw0GAbJ--0">
          <mxGeometry y="80" width="160" height="10" as="geometry" />
        </mxCell>
        <mxCell id="tVJIpHUnp2Z6W183kNAT-2" value="+ getResource(): Resource&lt;div&gt;+ getBuilding(): Building&lt;/div&gt;&lt;div&gt;+ isEmpty(): boolean&lt;/div&gt;" style="text;html=1;align=left;verticalAlign=middle;resizable=0;points=[];autosize=1;strokeColor=none;fillColor=none;" vertex="1" parent="zkfFHV4jXpPFQw0GAbJ--0">
          <mxGeometry y="90" width="160" height="60" as="geometry" />
        </mxCell>
        <mxCell id="tVJIpHUnp2Z6W183kNAT-8" value="&lt;&lt;Interface&gt;&gt;&#xa;Building" style="swimlane;fontStyle=0;align=center;verticalAlign=top;childLayout=stackLayout;horizontal=1;startSize=40;horizontalStack=0;resizeParent=1;resizeLast=0;collapsible=1;marginBottom=0;rounded=0;shadow=0;strokeWidth=1;" vertex="1" parent="WIyWlLk6GJQsqaUBKTNV-1">
          <mxGeometry x="256" y="480" width="174" height="110" as="geometry">
            <mxRectangle x="230" y="140" width="160" height="26" as="alternateBounds" />
          </mxGeometry>
        </mxCell>
        <mxCell id="tVJIpHUnp2Z6W183kNAT-20" value="+ toString(): String&lt;div&gt;+ getScore(): int&lt;/div&gt;&lt;div&gt;+ getSchematic(): Resource[][]&lt;/div&gt;&lt;div&gt;+ getRules(): String&lt;/div&gt;" style="text;html=1;align=left;verticalAlign=middle;resizable=0;points=[];autosize=1;strokeColor=none;fillColor=none;" vertex="1" parent="tVJIpHUnp2Z6W183kNAT-8">
          <mxGeometry y="40" width="174" height="70" as="geometry" />
        </mxCell>
        <mxCell id="tVJIpHUnp2Z6W183kNAT-15" value="&lt;&lt;Enumeration&gt;&gt;&#xa;BuildingType" style="swimlane;fontStyle=0;align=center;verticalAlign=top;childLayout=stackLayout;horizontal=1;startSize=36;horizontalStack=0;resizeParent=1;resizeLast=0;collapsible=1;marginBottom=0;rounded=0;shadow=0;strokeWidth=1;" vertex="1" parent="WIyWlLk6GJQsqaUBKTNV-1">
          <mxGeometry x="536" y="480" width="180" height="210" as="geometry">
            <mxRectangle x="230" y="140" width="160" height="26" as="alternateBounds" />
          </mxGeometry>
        </mxCell>
        <mxCell id="tVJIpHUnp2Z6W183kNAT-16" value="- COTTAGE (&quot;:cottage:&quot;)&#xa;- YELLOW (&quot;:yellowbuilding:&quot;)&#xa;- GREEN (&quot;:greenbuilding:&quot;)&#xa;- ORANGE (&quot;:orangebuilding:&quot;)&#xa;- RED (&quot;:redbuilding:&quot;)&#xa;- MONUMENT (&quot;:monument:&quot;)&#xa;- NAVY (&quot;:navybuilding:&quot;)&#xa;- GREY (&quot;:greybuilding:&quot;)" style="text;align=left;verticalAlign=top;spacingLeft=4;spacingRight=4;overflow=hidden;rotatable=0;points=[[0,0.5],[1,0.5]];portConstraint=eastwest;" vertex="1" parent="tVJIpHUnp2Z6W183kNAT-15">
          <mxGeometry y="36" width="180" height="124" as="geometry" />
        </mxCell>
        <mxCell id="tVJIpHUnp2Z6W183kNAT-17" value="" style="line;html=1;strokeWidth=1;align=left;verticalAlign=middle;spacingTop=-1;spacingLeft=3;spacingRight=3;rotatable=0;labelPosition=right;points=[];portConstraint=eastwest;" vertex="1" parent="tVJIpHUnp2Z6W183kNAT-15">
          <mxGeometry y="160" width="180" height="10" as="geometry" />
        </mxCell>
        <mxCell id="tVJIpHUnp2Z6W183kNAT-18" value="+ toString(): String&lt;div&gt;+ getEmoji(): String&lt;/div&gt;" style="text;html=1;align=left;verticalAlign=middle;resizable=0;points=[];autosize=1;strokeColor=none;fillColor=none;" vertex="1" parent="tVJIpHUnp2Z6W183kNAT-15">
          <mxGeometry y="170" width="180" height="40" as="geometry" />
        </mxCell>
        <mxCell id="tVJIpHUnp2Z6W183kNAT-21" value="" style="edgeStyle=orthogonalEdgeStyle;orthogonalLoop=1;jettySize=auto;html=1;rounded=0;endArrow=block;endFill=1;exitX=0.5;exitY=1;exitDx=0;exitDy=0;entryX=0.471;entryY=0;entryDx=0;entryDy=0;entryPerimeter=0;" edge="1" parent="WIyWlLk6GJQsqaUBKTNV-1" source="zkfFHV4jXpPFQw0GAbJ--0" target="tVJIpHUnp2Z6W183kNAT-8">
          <mxGeometry width="80" relative="1" as="geometry">
            <mxPoint x="301" y="440" as="sourcePoint" />
            <mxPoint x="381" y="440" as="targetPoint" />
            <Array as="points">
              <mxPoint x="336" y="460" />
              <mxPoint x="336" y="460" />
            </Array>
          </mxGeometry>
        </mxCell>
        <mxCell id="tVJIpHUnp2Z6W183kNAT-22" value="" style="edgeStyle=orthogonalEdgeStyle;orthogonalLoop=1;jettySize=auto;html=1;rounded=0;endArrow=block;endFill=1;" edge="1" parent="WIyWlLk6GJQsqaUBKTNV-1">
          <mxGeometry width="80" relative="1" as="geometry">
            <mxPoint x="430" y="509" as="sourcePoint" />
            <mxPoint x="536" y="570" as="targetPoint" />
            <Array as="points">
              <mxPoint x="481" y="509" />
              <mxPoint x="481" y="570" />
              <mxPoint x="536" y="570" />
            </Array>
          </mxGeometry>
        </mxCell>
        <mxCell id="tVJIpHUnp2Z6W183kNAT-23" value="&lt;&lt;Enumeration&gt;&gt;&#xa;Resource" style="swimlane;fontStyle=0;align=center;verticalAlign=top;childLayout=stackLayout;horizontal=1;startSize=40;horizontalStack=0;resizeParent=1;resizeLast=0;collapsible=1;marginBottom=0;rounded=0;shadow=0;strokeWidth=1;" vertex="1" parent="WIyWlLk6GJQsqaUBKTNV-1">
          <mxGeometry x="16" y="240" width="160" height="120" as="geometry">
            <mxRectangle x="230" y="140" width="160" height="26" as="alternateBounds" />
          </mxGeometry>
        </mxCell>
        <mxCell id="tVJIpHUnp2Z6W183kNAT-24" value="- WHEAT&#xa;- STONE&#xa;- BRICK&#xa;- GLASS&#xa;- WOOD" style="text;align=left;verticalAlign=top;spacingLeft=4;spacingRight=4;overflow=hidden;rotatable=0;points=[[0,0.5],[1,0.5]];portConstraint=eastwest;" vertex="1" parent="tVJIpHUnp2Z6W183kNAT-23">
          <mxGeometry y="40" width="160" height="80" as="geometry" />
        </mxCell>
        <mxCell id="tVJIpHUnp2Z6W183kNAT-25" value="" style="edgeStyle=orthogonalEdgeStyle;orthogonalLoop=1;jettySize=auto;html=1;rounded=0;endArrow=block;endFill=1;exitX=0;exitY=0.5;exitDx=0;exitDy=0;entryX=1;entryY=0.163;entryDx=0;entryDy=0;entryPerimeter=0;" edge="1" parent="WIyWlLk6GJQsqaUBKTNV-1">
          <mxGeometry width="80" relative="1" as="geometry">
            <mxPoint x="256" y="289" as="sourcePoint" />
            <mxPoint x="176" y="289.03999999999996" as="targetPoint" />
          </mxGeometry>
        </mxCell>
        <mxCell id="tVJIpHUnp2Z6W183kNAT-31" value="" style="edgeStyle=orthogonalEdgeStyle;orthogonalLoop=1;jettySize=auto;html=1;rounded=0;endArrow=block;endFill=1;entryX=0.507;entryY=0.993;entryDx=0;entryDy=0;entryPerimeter=0;" edge="1" parent="WIyWlLk6GJQsqaUBKTNV-1" target="tVJIpHUnp2Z6W183kNAT-24">
          <mxGeometry width="80" relative="1" as="geometry">
            <mxPoint x="256" y="510" as="sourcePoint" />
            <mxPoint x="76" y="420" as="targetPoint" />
            <Array as="points">
              <mxPoint x="256" y="510" />
              <mxPoint x="97" y="510" />
            </Array>
          </mxGeometry>
        </mxCell>
        <mxCell id="tVJIpHUnp2Z6W183kNAT-32" value="" style="edgeStyle=orthogonalEdgeStyle;orthogonalLoop=1;jettySize=auto;html=1;rounded=0;endArrow=block;endFill=1;dashed=1;entryX=0.002;entryY=0.633;entryDx=0;entryDy=0;entryPerimeter=0;" edge="1" parent="WIyWlLk6GJQsqaUBKTNV-1" target="tVJIpHUnp2Z6W183kNAT-20">
          <mxGeometry width="80" relative="1" as="geometry">
            <mxPoint x="200" y="560" as="sourcePoint" />
            <mxPoint x="341.0344827586207" y="530" as="targetPoint" />
            <Array as="points">
              <mxPoint x="200" y="564" />
              <mxPoint x="230" y="564" />
            </Array>
          </mxGeometry>
        </mxCell>
        <mxCell id="tVJIpHUnp2Z6W183kNAT-33" value="Town" style="swimlane;fontStyle=0;align=center;verticalAlign=top;childLayout=stackLayout;horizontal=1;startSize=26;horizontalStack=0;resizeParent=1;resizeLast=0;collapsible=1;marginBottom=0;rounded=0;shadow=0;strokeWidth=1;" vertex="1" parent="WIyWlLk6GJQsqaUBKTNV-1">
          <mxGeometry x="522" y="240" width="290" height="180" as="geometry">
            <mxRectangle x="230" y="140" width="160" height="26" as="alternateBounds" />
          </mxGeometry>
        </mxCell>
        <mxCell id="tVJIpHUnp2Z6W183kNAT-34" value="- name: String&#xa;- board: Tile[][]" style="text;align=left;verticalAlign=top;spacingLeft=4;spacingRight=4;overflow=hidden;rotatable=0;points=[[0,0.5],[1,0.5]];portConstraint=eastwest;" vertex="1" parent="tVJIpHUnp2Z6W183kNAT-33">
          <mxGeometry y="26" width="290" height="34" as="geometry" />
        </mxCell>
        <mxCell id="tVJIpHUnp2Z6W183kNAT-37" value="" style="edgeStyle=orthogonalEdgeStyle;orthogonalLoop=1;jettySize=auto;html=1;rounded=0;endArrow=block;endFill=1;entryX=0.999;entryY=0.412;entryDx=0;entryDy=0;entryPerimeter=0;" edge="1" parent="tVJIpHUnp2Z6W183kNAT-33" target="zkfFHV4jXpPFQw0GAbJ--1">
          <mxGeometry width="80" relative="1" as="geometry">
            <mxPoint x="-21" y="47.86" as="sourcePoint" />
            <mxPoint x="-117" y="47.86" as="targetPoint" />
            <Array as="points">
              <mxPoint y="48" />
            </Array>
          </mxGeometry>
        </mxCell>
        <mxCell id="tVJIpHUnp2Z6W183kNAT-35" value="" style="line;html=1;strokeWidth=1;align=left;verticalAlign=middle;spacingTop=-1;spacingLeft=3;spacingRight=3;rotatable=0;labelPosition=right;points=[];portConstraint=eastwest;" vertex="1" parent="tVJIpHUnp2Z6W183kNAT-33">
          <mxGeometry y="60" width="290" height="10" as="geometry" />
        </mxCell>
        <mxCell id="tVJIpHUnp2Z6W183kNAT-36" value="+ canBuild(x: int, y: int, building: Building): boolean&lt;div&gt;+ build&lt;span style=&quot;background-color: initial;&quot;&gt;(x: int, y: int, building: Building)&lt;/span&gt;&lt;/div&gt;&lt;div&gt;&lt;span style=&quot;background-color: initial;&quot;&gt;+ score(): int&lt;/span&gt;&lt;/div&gt;&lt;div&gt;&lt;span style=&quot;background-color: initial;&quot;&gt;+ canPlace(x: int, y: int): boolean&lt;/span&gt;&lt;/div&gt;&lt;div&gt;&lt;span style=&quot;background-color: initial;&quot;&gt;+ place(x: int, y: int)&lt;/span&gt;&lt;/div&gt;&lt;div&gt;&lt;span style=&quot;background-color: initial;&quot;&gt;+ toString(): String&lt;/span&gt;&lt;/div&gt;&lt;div&gt;&lt;span style=&quot;background-color: initial;&quot;&gt;&lt;br&gt;&lt;/span&gt;&lt;/div&gt;" style="text;html=1;align=left;verticalAlign=middle;resizable=0;points=[];autosize=1;strokeColor=none;fillColor=none;" vertex="1" parent="tVJIpHUnp2Z6W183kNAT-33">
          <mxGeometry y="70" width="290" height="110" as="geometry" />
        </mxCell>
        <mxCell id="tVJIpHUnp2Z6W183kNAT-38" value="Game" style="whiteSpace=wrap;html=1;" vertex="1" parent="WIyWlLk6GJQsqaUBKTNV-1">
          <mxGeometry x="586" y="90" width="162" height="30" as="geometry" />
        </mxCell>
        <mxCell id="tVJIpHUnp2Z6W183kNAT-39" value="Player" style="whiteSpace=wrap;html=1;" vertex="1" parent="WIyWlLk6GJQsqaUBKTNV-1">
          <mxGeometry x="586" y="160" width="162" height="30" as="geometry" />
        </mxCell>
        <mxCell id="tVJIpHUnp2Z6W183kNAT-40" value="" style="edgeStyle=orthogonalEdgeStyle;orthogonalLoop=1;jettySize=auto;html=1;rounded=0;entryX=0.475;entryY=-0.015;entryDx=0;entryDy=0;endArrow=block;endFill=1;entryPerimeter=0;" edge="1" parent="WIyWlLk6GJQsqaUBKTNV-1">
          <mxGeometry width="80" relative="1" as="geometry">
            <mxPoint x="667" y="120" as="sourcePoint" />
            <mxPoint x="667.95" y="159.55000000000007" as="targetPoint" />
            <Array as="points">
              <mxPoint x="667" y="160" />
            </Array>
          </mxGeometry>
        </mxCell>
        <mxCell id="tVJIpHUnp2Z6W183kNAT-41" value="" style="edgeStyle=orthogonalEdgeStyle;orthogonalLoop=1;jettySize=auto;html=1;rounded=0;entryX=0.5;entryY=0;entryDx=0;entryDy=0;endArrow=block;endFill=1;" edge="1" parent="WIyWlLk6GJQsqaUBKTNV-1" target="tVJIpHUnp2Z6W183kNAT-33">
          <mxGeometry width="80" relative="1" as="geometry">
            <mxPoint x="666.52" y="190" as="sourcePoint" />
            <mxPoint x="667.47" y="229.55000000000007" as="targetPoint" />
            <Array as="points">
              <mxPoint x="667" y="230" />
              <mxPoint x="667" y="230" />
            </Array>
          </mxGeometry>
        </mxCell>
        <mxCell id="4xZWK2WGScTKpPvZwVl7-0" value="Unique Building" style="swimlane;fontStyle=0;align=center;verticalAlign=top;childLayout=stackLayout;horizontal=1;startSize=30;horizontalStack=0;resizeParent=1;resizeLast=0;collapsible=1;marginBottom=0;rounded=0;shadow=0;strokeWidth=1;" vertex="1" parent="WIyWlLk6GJQsqaUBKTNV-1">
          <mxGeometry x="40" y="540" width="160" height="70" as="geometry">
            <mxRectangle x="230" y="140" width="160" height="26" as="alternateBounds" />
          </mxGeometry>
        </mxCell>
        <mxCell id="4xZWK2WGScTKpPvZwVl7-1" value="+ type: BuildingType&#xa;- schematic: Resource[][]" style="text;align=left;verticalAlign=top;spacingLeft=4;spacingRight=4;overflow=hidden;rotatable=0;points=[[0,0.5],[1,0.5]];portConstraint=eastwest;" vertex="1" parent="4xZWK2WGScTKpPvZwVl7-0">
          <mxGeometry y="30" width="160" height="40" as="geometry" />
        </mxCell>
      </root>
    </mxGraphModel>
  </diagram>
</mxfile>
